<?xml version="1.0" encoding="utf-8"?>
<!-- Generator: Adobe Illustrator 16.0.0, SVG Export Plug-In . SVG Version: 6.00 Build 0)  -->
<!DOCTYPE svg PUBLIC "-//W3C//DTD SVG 1.1//EN" "http://www.w3.org/Graphics/SVG/1.1/DTD/svg11.dtd">
<svg version="1.1" xmlns="http://www.w3.org/2000/svg" xmlns:xlink="http://www.w3.org/1999/xlink" x="0px" y="0px" width="24px"
	 height="24px" viewBox="0 0 24 24" enable-background="new 0 0 24 24" xml:space="preserve">
<g id="Layer_1">
	
		<linearGradient id="SVGID_1_" gradientUnits="userSpaceOnUse" x1="11.8599" y1="23.0547" x2="11.8599" y2="-0.9453" gradientTransform="matrix(1 0 0 -1 0.1401 23.0547)">
		<stop  offset="0" style="stop-color:#95BFF8"/>
		<stop  offset="0.5569" style="stop-color:#84ADEF"/>
		<stop  offset="1" style="stop-color:#7CA4EB"/>
	</linearGradient>
	<polygon fill="url(#SVGID_1_)" points="14.4,0 13.4,0 3,0 2,0 2,24 3,24 21,24 22,24 22,7.9 	"/>
	
		<linearGradient id="SVGID_2_" gradientUnits="userSpaceOnUse" x1="11.8599" y1="22.0547" x2="11.8599" y2="0.0547" gradientTransform="matrix(1 0 0 -1 0.1401 23.0547)">
		<stop  offset="0" style="stop-color:#E7F4FC"/>
		<stop  offset="1" style="stop-color:#DEEFFC"/>
	</linearGradient>
	<polygon fill="url(#SVGID_2_)" points="14,1 13,1 4,1 3,1 3,23 4,23 20,23 21,23 21,8.3 	"/>
	
		<linearGradient id="SVGID_3_" gradientUnits="userSpaceOnUse" x1="11.8599" y1="21.0547" x2="11.8599" y2="1.0547" gradientTransform="matrix(1 0 0 -1 0.1401 23.0547)">
		<stop  offset="0" style="stop-color:#CEE9F9"/>
		<stop  offset="1" style="stop-color:#BBDFF8"/>
	</linearGradient>
	<polygon fill="url(#SVGID_3_)" points="13.6,2 12.6,2 5,2 4,2 4,22 5,22 19,22 20,22 20,8.7 	"/>
	
		<linearGradient id="SVGID_4_" gradientUnits="userSpaceOnUse" x1="17.0596" y1="23.0547" x2="17.0596" y2="13.6953" gradientTransform="matrix(1 0 0 -1 0.1401 23.0547)">
		<stop  offset="0" style="stop-color:#95BFF8"/>
		<stop  offset="0.5569" style="stop-color:#84ADEF"/>
		<stop  offset="1" style="stop-color:#7CA4EB"/>
	</linearGradient>
	<path fill="url(#SVGID_4_)" d="M13,9c0,0,5.2-1.5,9,0.4c0-0.1,0-1.5,0-1.5L14.4,0c0,0-1.801,0-2,0C15.1,3.7,13,9,13,9z"/>
	
		<linearGradient id="SVGID_5_" gradientUnits="userSpaceOnUse" x1="14.208" y1="15.4512" x2="17.3354" y2="18.5786" gradientTransform="matrix(1 0 0 -1 0.1401 23.0547)">
		<stop  offset="0" style="stop-color:#E7F4FC"/>
		<stop  offset="0.5181" style="stop-color:#E5F3FC"/>
		<stop  offset="0.7045" style="stop-color:#DEF0FB"/>
		<stop  offset="0.8371" style="stop-color:#D3EBFA"/>
		<stop  offset="0.872" style="stop-color:#CEE9F9"/>
		<stop  offset="1" style="stop-color:#BDD8F0"/>
	</linearGradient>
	<path fill="url(#SVGID_5_)" d="M20.5,7.8c-0.9-0.2-2-0.3-3.1-0.3c-1.101,0-2.101,0.1-3,0.3C14.8,6.2,15.1,3.7,14.2,1.4L20.5,7.8z"
		/>
	
		<radialGradient id="SVGID_6_" cx="7.3911" cy="6.5547" r="7.0003" gradientTransform="matrix(1 0 0 -1 0.1401 23.0547)" gradientUnits="userSpaceOnUse">
		<stop  offset="0" style="stop-color:#8BB4F0"/>
		<stop  offset="0.0772" style="stop-color:#88B1EF"/>
		<stop  offset="0.488" style="stop-color:#7FA7EC"/>
		<stop  offset="1" style="stop-color:#7CA4EB"/>
	</radialGradient>
	<path fill="url(#SVGID_6_)" d="M7.5,23.5C0.4,23.2-1.6,15.1,3,11.2c1.8-1.6,3.8-1.7,4.6-1.7c0.4,0,0.8,0,1.1,0.1
		c0.3,0,0.7,0.1,1,0.2c0.3,0.1,0.7,0.3,1,0.4c0.3,0.2,0.6,0.4,0.9,0.6c0.3,0.2,0.6,0.4,0.8,0.7c0.3,0.3,0.5,0.5,0.7,0.8
		c0.2,0.3,0.4,0.601,0.601,0.9s0.3,0.7,0.399,1c0.101,0.3,0.2,0.7,0.301,1.1c0.1,0.4,0.1,0.8,0.1,1.101c0,0.3,0,0.8-0.1,1.1
		C14.3,17.9,14.3,18.2,14.1,18.6c-0.1,0.301-0.3,0.7-0.399,1C13.5,19.9,13.3,20.2,13.1,20.5c-0.199,0.3-0.399,0.6-0.7,0.8
		c-0.3,0.3-0.5,0.5-0.8,0.7c-0.3,0.2-0.6,0.4-0.9,0.6c-0.3,0.2-0.7,0.301-1,0.4c-0.3,0.1-0.7,0.2-1.1,0.3
		C8.3,23.5,7.9,23.5,7.5,23.5"/>
	<path fill="#FFFFFF" d="M7.5,23C1,22.7-0.9,15.2,3.3,11.6C5,10.1,6.8,10,7.5,10c0.4,0,0.7,0,1.1,0.1c0.3,0.1,0.7,0.1,1,0.2
		c0.3,0.1,0.6,0.2,0.9,0.4c0.3,0.2,0.6,0.3,0.9,0.5c0.3,0.2,0.5,0.4,0.8,0.6c0.2,0.2,0.5,0.5,0.6,0.8c0.2,0.301,0.4,0.601,0.5,0.9
		c0.101,0.3,0.3,0.6,0.4,0.9c0.1,0.3,0.2,0.699,0.2,1C14,15.7,14,16.1,14,16.5s0,0.7-0.1,1.1c-0.101,0.301-0.101,0.7-0.2,1
		C13.6,18.9,13.5,19.2,13.3,19.5s-0.3,0.6-0.5,0.9c-0.2,0.3-0.4,0.5-0.6,0.8c-0.2,0.3-0.5,0.5-0.8,0.6c-0.3,0.2-0.6,0.4-0.9,0.5
		c-0.3,0.2-0.6,0.3-0.9,0.4c-0.3,0.1-0.7,0.2-1,0.2C8.2,23,7.9,23,7.5,23"/>
	
		<linearGradient id="SVGID_7_" gradientUnits="userSpaceOnUse" x1="7.3599" y1="14.0205" x2="7.3599" y2="-0.9116" gradientTransform="matrix(1 0 0 -1 0.1401 23.0547)">
		<stop  offset="0" style="stop-color:#76A1F0"/>
		<stop  offset="1" style="stop-color:#6B90D5"/>
	</linearGradient>
	<path fill="url(#SVGID_7_)" d="M7.5,9C3.3,9,0,12.4,0,16.5C0,20.6,3.3,24,7.5,24c4.1,0,7.5-3.3,7.5-7.5C14.9,12.4,11.6,9,7.5,9z
		 M13.7,18.6C13.6,18.9,13.5,19.2,13.3,19.5s-0.3,0.6-0.5,0.9c-0.2,0.3-0.4,0.5-0.6,0.8c-0.2,0.3-0.5,0.5-0.8,0.6
		c-0.3,0.2-0.6,0.4-0.9,0.5c-0.3,0.2-0.6,0.3-0.9,0.4c-0.3,0.1-0.7,0.2-1,0.2C8.2,23,7.9,23,7.5,23C1,22.7-0.9,15.2,3.3,11.6
		C5,10.1,6.8,10,7.5,10c0.4,0,0.7,0,1.1,0.1c0.3,0.1,0.7,0.1,1,0.2c0.3,0.1,0.6,0.2,0.9,0.4c0.3,0.2,0.6,0.3,0.9,0.5
		c0.3,0.2,0.5,0.4,0.8,0.6c0.2,0.2,0.5,0.5,0.6,0.8c0.2,0.301,0.4,0.601,0.5,0.9c0.101,0.3,0.3,0.6,0.4,0.9c0.1,0.3,0.2,0.699,0.2,1
		C14,15.7,14,16.1,14,16.5s0,0.7-0.1,1.1C13.9,17.9,13.8,18.2,13.7,18.6z"/>
</g>
<g id="Layer_2">
	<linearGradient id="SVGID_8_" gradientUnits="userSpaceOnUse" x1="4" y1="16.748" x2="9.5146" y2="16.748">
		<stop  offset="0" style="stop-color:#76A1F0"/>
		<stop  offset="1" style="stop-color:#6B90D5"/>
	</linearGradient>
	<polygon fill="url(#SVGID_8_)" points="9.411,20.126 4,16.76 9.515,13.37 	"/>
</g>
</svg>
